Coordinates
version=1
nRows=8
nColumns=36
inDegrees=yes

Units are S.I. units (second, meters, Newtons, ...)
If the header above contains a line with 'inDegrees', this indicates whether rotational values are in degrees (yes) or radians (no).

endheader
time	pelvis_tilt	pelvis_list	pelvis_rotation	pelvis_tx	pelvis_ty	pelvis_tz	hip_flexion_r	hip_adduction_r	hip_rotation_r	knee_angle_r	knee_angle_r_beta	ankle_angle_r	subtalar_angle_r	mtp_angle_r	hip_flexion_l	hip_adduction_l	hip_rotation_l	knee_angle_l	knee_angle_l_beta	ankle_angle_l	subtalar_angle_l	mtp_angle_l	lumbar_extension	lumbar_bending	lumbar_rotation	arm_flex_r	arm_add_r	arm_rot_r	elbow_flex_r	pro_sup_r	arm_flex_l	arm_add_l	arm_rot_l	elbow_flex_l	pro_sup_l
      2.93333330	    -10.76906552	      3.54788431	      0.00682708	      0.12246082	      1.28530806	     -0.08005744	     18.47479544	     -1.11590883	      3.24162893	     42.76316477	      0.74635802	     41.03779660	      1.24928151	     -7.49999987	     18.49389122	      4.54686883	      0.36940390	     45.57292080	      0.79539752	     30.35786805	      7.96036790	     -7.49999987	    -16.68106919	     -5.20040556	     -1.25998244	    -17.69986201	    -45.66100797	     34.68355256	     89.86545124	     75.03390581	    -29.77951945	    -40.03270534	     13.94614765	     99.02325648	     80.45397417
      2.95000000	     -9.08529465	      3.00527454	     -0.00495141	      0.13145678	      1.31208250	     -0.08324769	     13.93177133	     -0.65115728	      3.45798621	     38.86094388	      0.67825142	     37.56291409	     -0.71328489	     -7.49999987	     14.37587888	      3.94884055	      1.10582286	     43.63973943	      0.76165714	     28.51683625	      8.00481772	     -7.49999987	    -16.97298314	     -4.32178415	     -1.28721225	    -18.35349270	    -46.55445223	     34.01594040	     91.58963095	     74.63825761	    -30.47625113	    -40.12163372	     13.15433036	     99.81236066	     80.06778099
      2.96666670	     -8.05876286	      2.56923701	     -0.26669132	      0.14140783	      1.33149964	     -0.07993651	     11.23241737	     -0.24878935	      3.87664792	     37.01133456	      0.64596965	     34.51828253	     -2.75662418	     -7.49999987	     11.71054760	      3.26853792	      1.64433477	     42.93606279	      0.74937566	     26.29972848	      7.29450249	     -7.49999987	    -16.99016217	     -3.56068265	     -1.11332733	    -18.28353502	    -47.20227636	     33.33144777	     92.81890026	     73.70622448	    -30.73795286	    -40.24524823	     13.10575436	    100.02877923	     78.90998163
      2.98333330	     -7.35410396	      1.97012915	     -0.51686803	      0.15056504	      1.34684037	     -0.07679094	      9.14252626	      0.17027202	      3.88595269	     35.94236000	      0.62731252	     31.62141289	     -3.81705396	     -7.49999987	     10.07602493	      2.55926191	      2.53386942	     42.35350621	      0.73920813	     24.04335441	      5.93013008	     -7.49999987	    -17.02022126	     -2.65136991	     -1.00208953	    -19.27933596	    -47.99766738	     31.56185434	     94.74919690	     72.74791902	    -31.54414137	    -40.39571671	     12.24464970	    100.82041452	     77.92396335
      3.00000000	     -6.27262868	      1.58488762	     -0.47943724	      0.18853008	      1.36677458	     -0.08365673	      6.18941040	      0.08026972	      3.51760710	     34.82183358	      0.60775565	     28.42148882	     -4.28136846	     -7.49999987	      7.79564890	      2.22453784	      3.20232865	     41.23208822	      0.71963570	     21.20435945	      4.45354684	     -7.49999987	    -16.96237964	     -1.83640201	     -0.80459285	    -22.05137271	    -47.47573755	     27.47767435	     95.62703749	     73.01951925	    -32.46403756	    -39.30342640	     11.27942920	    100.52268850	     78.82614652
      3.01666670	     -6.41837596	      1.37034979	     -0.76194292	      0.19794747	      1.37194873	     -0.08002053	      5.75421031	     -0.07358552	      3.31781692	     36.54395804	      0.63781239	     25.22543244	     -5.21947882	     -7.49999987	      7.71507460	      1.84509753	      3.31598716	     41.93181045	      0.73184815	     19.06903535	      3.31069614	     -7.49999987	    -15.62866930	     -1.41325001	     -0.74606310	    -22.94880748	    -47.31634186	     26.15837098	     95.78836838	     73.16682789	    -33.32814021	    -38.82171032	     10.53659649	     99.91652810	     78.89662278
      3.03333330	     -7.09710139	      1.23700664	     -1.18556135	      0.21796341	      1.38104187	     -0.07934499	      6.67880419	     -0.44753353	      3.02014488	     39.24145808	      0.68489265	     22.38269363	     -5.82511192	     -7.49999987	      9.53740924	      1.32514996	      3.01661270	     44.48290317	      0.77637312	     18.17476201	      2.77685977	     -7.49999987	    -14.01764019	     -1.05373358	      1.05224490	    -27.98557856	    -45.31568410	     19.00401653	     96.21216036	     76.17439117	    -32.96817312	    -38.57653748	     10.07432579	     99.12816419	     80.36404426
      3.05000000	     -8.01088528	      1.36105081	     -1.35184434	      0.23749647	      1.38342471	     -0.07813017	      8.68656509	     -1.21139349	      2.23563561	     42.37824982	      0.73963999	     19.37794081	     -7.47281418	     -7.49999987	     11.21949133	      0.98614495	      2.51043769	     45.54154037	      0.79484983	     17.99210878	      2.15009675	     -7.49999987	    -12.72471201	     -1.01321487	      1.18255645	    -28.82827583	    -45.22660688	     17.82295799	     95.97436341	     74.93439984	    -34.50584450	    -38.02406935	      8.44101367	     98.83175468	     78.06006229
